<svg xmlns="http://www.w3.org/2000/svg" width="1280" height="820" viewBox="0 0 1280 820" font-family="'Segoe UI',Roboto,Helvetica,Arial,sans-serif"><defs><linearGradient id="acc" x1="0" y1="0" x2="1" y2="1"><stop offset="0" stop-color="#a238ff"/><stop offset="1" stop-color="#ff0092"/></linearGradient><linearGradient id="accH" x1="0" y1="0" x2="1" y2="0"><stop offset="0" stop-color="#a238ff"/><stop offset="1" stop-color="#ff0092"/></linearGradient><linearGradient id="c0" x1="0" y1="0" x2="1" y2="1"><stop offset="0" stop-color="#ff6a88"/><stop offset="1" stop-color="#ff99ac"/></linearGradient><linearGradient id="c1" x1="0" y1="0" x2="1" y2="1"><stop offset="0" stop-color="#12c2e9"/><stop offset="1" stop-color="#c471ed"/></linearGradient><linearGradient id="c2" x1="0" y1="0" x2="1" y2="1"><stop offset="0" stop-color="#f7971e"/><stop offset="1" stop-color="#ffd200"/></linearGradient><linearGradient id="c3" x1="0" y1="0" x2="1" y2="1"><stop offset="0" stop-color="#43cea2"/><stop offset="1" stop-color="#185a9d"/></linearGradient><linearGradient id="c4" x1="0" y1="0" x2="1" y2="1"><stop offset="0" stop-color="#ee0979"/><stop offset="1" stop-color="#ff6a00"/></linearGradient><linearGradient id="c5" x1="0" y1="0" x2="1" y2="1"><stop offset="0" stop-color="#654ea3"/><stop offset="1" stop-color="#eaafc8"/></linearGradient><linearGradient id="c6" x1="0" y1="0" x2="1" y2="1"><stop offset="0" stop-color="#00c6ff"/><stop offset="1" stop-color="#0072ff"/></linearGradient><linearGradient id="c7" x1="0" y1="0" x2="1" y2="1"><stop offset="0" stop-color="#1d976c"/><stop offset="1" stop-color="#93f9b9"/></linearGradient><linearGradient id="c8" x1="0" y1="0" x2="1" y2="1"><stop offset="0" stop-color="#fc5c7d"/><stop offset="1" stop-color="#6a82fb"/></linearGradient><linearGradient id="c9" x1="0" y1="0" x2="1" y2="1"><stop offset="0" stop-color="#f953c6"/><stop offset="1" stop-color="#b91d73"/></linearGradient><linearGradient id="c10" x1="0" y1="0" x2="1" y2="1"><stop offset="0" stop-color="#3a1c71"/><stop offset="1" stop-color="#d76d77"/></linearGradient><linearGradient id="c11" x1="0" y1="0" x2="1" y2="1"><stop offset="0" stop-color="#c471ed"/><stop offset="1" stop-color="#f64f59"/></linearGradient></defs><clipPath id="round"><rect width="1280" height="820" rx="16"/></clipPath><g clip-path="url(#round)"><rect width="1280" height="820" fill="#0f0d13"/><rect x="0" y="0" width="240" height="732" fill="#1b1822"/><circle cx="27" cy="40" r="7" fill="url(#acc)"/><text x="42" y="45" font-family="'Segoe UI',Roboto,Helvetica,Arial,sans-serif" font-size="17" font-weight="800" fill="#f3f0f7" text-anchor="start">NSupySonic</text><rect x="16" y="66" width="208" height="38" rx="10" fill="#1f1b29"/><text x="30" y="90" font-family="'Segoe UI',Roboto,Helvetica,Arial,sans-serif" font-size="13.5" font-weight="400" fill="#a39db5" text-anchor="start">Rechercher…</text><rect x="12" y="122" width="216" height="38" rx="10" fill="#2a2538"/><path d="M24.0 149.0 V140 L32 132.0 L40.0 140 V149.0 Z" stroke="#f3f0f7" stroke-width="1.8" fill="none" stroke-linecap="round" stroke-linejoin="round"/><text x="52" y="146" font-family="'Segoe UI',Roboto,Helvetica,Arial,sans-serif" font-size="14.5" font-weight="600" fill="#f3f0f7" text-anchor="start">Accueil</text><circle cx="30" cy="181" r="6.0" stroke="#a39db5" stroke-width="1.8" fill="none" stroke-linecap="round" stroke-linejoin="round"/><line x1="35.0" y1="186.0" x2="41.0" y2="192.0" stroke="#a39db5" stroke-width="1.8" fill="none" stroke-linecap="round" stroke-linejoin="round"/><text x="52" y="188" font-family="'Segoe UI',Roboto,Helvetica,Arial,sans-serif" font-size="14.5" font-weight="600" fill="#a39db5" text-anchor="start">Rechercher</text><line x1="25.0" y1="219" x2="39.0" y2="219" stroke="#a39db5" stroke-width="1.8" fill="none" stroke-linecap="round" stroke-linejoin="round"/><line x1="25.0" y1="225" x2="39.0" y2="225" stroke="#a39db5" stroke-width="1.8" fill="none" stroke-linecap="round" stroke-linejoin="round"/><line x1="25.0" y1="231" x2="39.0" y2="231" stroke="#a39db5" stroke-width="1.8" fill="none" stroke-linecap="round" stroke-linejoin="round"/><text x="52" y="230" font-family="'Segoe UI',Roboto,Helvetica,Arial,sans-serif" font-size="14.5" font-weight="600" fill="#a39db5" text-anchor="start">Ma bibliothèque</text><rect x="29" y="259.0" width="6" height="12" rx="3" stroke="#a39db5" stroke-width="1.8" fill="none" stroke-linecap="round" stroke-linejoin="round"/><path d="M26 267 a6 6 0 0 0 12 0" stroke="#a39db5" stroke-width="1.8" fill="none" stroke-linecap="round" stroke-linejoin="round"/><line x1="32" y1="273" x2="32" y2="276.0" stroke="#a39db5" stroke-width="1.8" fill="none" stroke-linecap="round" stroke-linejoin="round"/><text x="52" y="272" font-family="'Segoe UI',Roboto,Helvetica,Arial,sans-serif" font-size="14.5" font-weight="600" fill="#a39db5" text-anchor="start">Podcasts</text><circle cx="32" cy="309" r="3.2" stroke="#a39db5" stroke-width="1.8" fill="none" stroke-linecap="round" stroke-linejoin="round"/><circle cx="32" cy="309" r="7.0" stroke="#a39db5" stroke-width="1.8" fill="none" stroke-linecap="round" stroke-linejoin="round" stroke-dasharray="2.2 3.2"/><text x="52" y="314" font-family="'Segoe UI',Roboto,Helvetica,Arial,sans-serif" font-size="14.5" font-weight="600" fill="#a39db5" text-anchor="start">Réglages</text><line x1="18" y1="356" x2="222" y2="356" stroke="#2a2538" stroke-width="1"/><text x="20" y="378" font-family="'Segoe UI',Roboto,Helvetica,Arial,sans-serif" font-size="11" font-weight="700" fill="#a39db5" text-anchor="start" letter-spacing="1">PLAYLISTS</text><circle cx="190" cy="374" r="3.2" stroke="#a39db5" stroke-width="1.8" fill="none" stroke-linecap="round" stroke-linejoin="round"/><circle cx="190" cy="374" r="5.0" stroke="#a39db5" stroke-width="1.8" fill="none" stroke-linecap="round" stroke-linejoin="round" stroke-dasharray="2.2 3.2"/><text x="214" y="379" font-family="'Segoe UI',Roboto,Helvetica,Arial,sans-serif" font-size="20" font-weight="400" fill="#a39db5" text-anchor="middle">+</text><text x="24" y="402" font-family="'Segoe UI',Roboto,Helvetica,Arial,sans-serif" font-size="13.5" font-weight="400" fill="#a39db5" text-anchor="start">Découvertes de la semaine</text><text x="24" y="432" font-family="'Segoe UI',Roboto,Helvetica,Arial,sans-serif" font-size="13.5" font-weight="400" fill="#a39db5" text-anchor="start">Deep Focus</text><text x="24" y="462" font-family="'Segoe UI',Roboto,Helvetica,Arial,sans-serif" font-size="13.5" font-weight="400" fill="#a39db5" text-anchor="start">Été 2026</text><text x="24" y="492" font-family="'Segoe UI',Roboto,Helvetica,Arial,sans-serif" font-size="13.5" font-weight="400" fill="#a39db5" text-anchor="start">Late Night Drive</text><text x="24" y="522" font-family="'Segoe UI',Roboto,Helvetica,Arial,sans-serif" font-size="13.5" font-weight="400" fill="#a39db5" text-anchor="start">Workout Power</text><text x="24" y="552" font-family="'Segoe UI',Roboto,Helvetica,Arial,sans-serif" font-size="13.5" font-weight="400" fill="#a39db5" text-anchor="start">Acoustique du dimanche</text><line x1="18" y1="686" x2="222" y2="686" stroke="#2a2538" stroke-width="1"/><text x="20" y="708" font-family="'Segoe UI',Roboto,Helvetica,Arial,sans-serif" font-size="14" font-weight="700" fill="#f3f0f7" text-anchor="start">admin</text><text x="20" y="726" font-family="'Segoe UI',Roboto,Helvetica,Arial,sans-serif" font-size="12.5" font-weight="400" fill="#a39db5" text-anchor="start">Déconnexion</text><text x="272" y="62" font-family="'Segoe UI',Roboto,Helvetica,Arial,sans-serif" font-size="30" font-weight="800" fill="#f3f0f7" text-anchor="start">Bonsoir</text><text x="272" y="90" font-family="'Segoe UI',Roboto,Helvetica,Arial,sans-serif" font-size="14" font-weight="400" fill="#a39db5" text-anchor="start">Vos mixes, vos nouveautés et vos recommandations.</text><rect x="1084" y="40" width="168" height="40" rx="20.0" fill="url(#accH)"/><path d="M1102 54.0 L1113 60.0 L1102 66.0 Z" fill="#ffffff"/><text x="1124" y="65.0" font-family="'Segoe UI',Roboto,Helvetica,Arial,sans-serif" font-size="14" font-weight="700" fill="#ffffff" text-anchor="start">Lancer mon Flow</text><rect x="922" y="40" width="150" height="40" rx="20.0" fill="#2a2538"/><line x1="937" y1="55.0" x2="951" y2="55.0" stroke="#f3f0f7" stroke-width="1.8" fill="none" stroke-linecap="round" stroke-linejoin="round"/><circle cx="946" cy="55.0" r="2.4" fill="#f3f0f7"/><line x1="937" y1="65.0" x2="951" y2="65.0" stroke="#f3f0f7" stroke-width="1.8" fill="none" stroke-linecap="round" stroke-linejoin="round"/><circle cx="942" cy="65.0" r="2.4" fill="#f3f0f7"/><text x="962" y="65.0" font-family="'Segoe UI',Roboto,Helvetica,Arial,sans-serif" font-size="14" font-weight="700" fill="#f3f0f7" text-anchor="start">Personnaliser</text><text x="272" y="150" font-family="'Segoe UI',Roboto,Helvetica,Arial,sans-serif" font-size="20" font-weight="700" fill="#f3f0f7" text-anchor="start">Des mixes créés pour vous</text><rect x="272" y="170" width="148" height="148" rx="10" fill="url(#c3)"/><circle cx="346" cy="244" r="44" fill="none" stroke="#ffffff" stroke-width="4" opacity="0.20"/><circle cx="346" cy="244" r="13" fill="#ffffff" opacity="0.30"/><text x="272" y="340" font-family="'Segoe UI',Roboto,Helvetica,Arial,sans-serif" font-size="14" font-weight="600" fill="#f3f0f7" text-anchor="start">Flow</text><text x="272" y="360" font-family="'Segoe UI',Roboto,Helvetica,Arial,sans-serif" font-size="12.5" font-weight="400" fill="#a39db5" text-anchor="start">Mix</text><rect x="436" y="170" width="148" height="148" rx="10" fill="url(#c4)"/><circle cx="543" cy="211" r="44" fill="#ffffff" opacity="0.14"/><circle cx="480" cy="280" r="30" fill="#000000" opacity="0.12"/><text x="436" y="340" font-family="'Segoe UI',Roboto,Helvetica,Arial,sans-serif" font-size="14" font-weight="600" fill="#f3f0f7" text-anchor="start">Mix Pop</text><text x="436" y="360" font-family="'Segoe UI',Roboto,Helvetica,Arial,sans-serif" font-size="12.5" font-weight="400" fill="#a39db5" text-anchor="start">Mix</text><rect x="600" y="170" width="148" height="148" rx="10" fill="url(#c5)"/><path d="M600 271 Q 674 220 748 277 L 748 318 L 600 318 Z" fill="#000000" opacity="0.14"/><circle cx="701" cy="220" r="19" fill="#ffffff" opacity="0.22"/><text x="600" y="340" font-family="'Segoe UI',Roboto,Helvetica,Arial,sans-serif" font-size="14" font-weight="600" fill="#f3f0f7" text-anchor="start">Mix Chill</text><text x="600" y="360" font-family="'Segoe UI',Roboto,Helvetica,Arial,sans-serif" font-size="12.5" font-weight="400" fill="#a39db5" text-anchor="start">Mix</text><rect x="764" y="170" width="148" height="148" rx="10" fill="url(#c6)"/><rect x="791" y="206" width="13" height="77" rx="7" fill="#ffffff" opacity="0.10"/><rect x="823" y="206" width="13" height="77" rx="7" fill="#ffffff" opacity="0.16"/><rect x="856" y="206" width="13" height="77" rx="7" fill="#ffffff" opacity="0.22"/><text x="764" y="340" font-family="'Segoe UI',Roboto,Helvetica,Arial,sans-serif" font-size="14" font-weight="600" fill="#f3f0f7" text-anchor="start">Mix Rock</text><text x="764" y="360" font-family="'Segoe UI',Roboto,Helvetica,Arial,sans-serif" font-size="12.5" font-weight="400" fill="#a39db5" text-anchor="start">Mix</text><rect x="928" y="170" width="148" height="148" rx="10" fill="url(#c7)"/><circle cx="1002" cy="244" r="44" fill="none" stroke="#ffffff" stroke-width="4" opacity="0.20"/><circle cx="1002" cy="244" r="13" fill="#ffffff" opacity="0.30"/><text x="928" y="340" font-family="'Segoe UI',Roboto,Helvetica,Arial,sans-serif" font-size="14" font-weight="600" fill="#f3f0f7" text-anchor="start">Mix Électro</text><text x="928" y="360" font-family="'Segoe UI',Roboto,Helvetica,Arial,sans-serif" font-size="12.5" font-weight="400" fill="#a39db5" text-anchor="start">Mix</text><rect x="1092" y="170" width="148" height="148" rx="10" fill="url(#c8)"/><circle cx="1199" cy="211" r="44" fill="#ffffff" opacity="0.14"/><circle cx="1136" cy="280" r="30" fill="#000000" opacity="0.12"/><text x="1092" y="340" font-family="'Segoe UI',Roboto,Helvetica,Arial,sans-serif" font-size="14" font-weight="600" fill="#f3f0f7" text-anchor="start">Mix Jazz</text><text x="1092" y="360" font-family="'Segoe UI',Roboto,Helvetica,Arial,sans-serif" font-size="12.5" font-weight="400" fill="#a39db5" text-anchor="start">Mix</text><text x="272" y="400" font-family="'Segoe UI',Roboto,Helvetica,Arial,sans-serif" font-size="20" font-weight="700" fill="#f3f0f7" text-anchor="start">Playlists pour vous</text><rect x="272" y="420" width="148" height="148" rx="10" fill="url(#c1)"/><path d="M272 521 Q 346 470 420 527 L 420 568 L 272 568 Z" fill="#000000" opacity="0.14"/><circle cx="373" cy="470" r="19" fill="#ffffff" opacity="0.22"/><text x="272" y="590" font-family="'Segoe UI',Roboto,Helvetica,Arial,sans-serif" font-size="14" font-weight="600" fill="#f3f0f7" text-anchor="start">Hits du moment</text><text x="272" y="610" font-family="'Segoe UI',Roboto,Helvetica,Arial,sans-serif" font-size="12.5" font-weight="400" fill="#a39db5" text-anchor="start">Playlist</text><rect x="436" y="420" width="148" height="148" rx="10" fill="url(#c2)"/><rect x="463" y="456" width="13" height="77" rx="7" fill="#ffffff" opacity="0.10"/><rect x="495" y="456" width="13" height="77" rx="7" fill="#ffffff" opacity="0.16"/><rect x="528" y="456" width="13" height="77" rx="7" fill="#ffffff" opacity="0.22"/><text x="436" y="590" font-family="'Segoe UI',Roboto,Helvetica,Arial,sans-serif" font-size="14" font-weight="600" fill="#f3f0f7" text-anchor="start">Été 2026</text><text x="436" y="610" font-family="'Segoe UI',Roboto,Helvetica,Arial,sans-serif" font-size="12.5" font-weight="400" fill="#a39db5" text-anchor="start">Playlist</text><rect x="600" y="420" width="148" height="148" rx="10" fill="url(#c3)"/><circle cx="674" cy="494" r="44" fill="none" stroke="#ffffff" stroke-width="4" opacity="0.20"/><circle cx="674" cy="494" r="13" fill="#ffffff" opacity="0.30"/><text x="600" y="590" font-family="'Segoe UI',Roboto,Helvetica,Arial,sans-serif" font-size="14" font-weight="600" fill="#f3f0f7" text-anchor="start">Focus</text><text x="600" y="610" font-family="'Segoe UI',Roboto,Helvetica,Arial,sans-serif" font-size="12.5" font-weight="400" fill="#a39db5" text-anchor="start">Playlist</text><rect x="764" y="420" width="148" height="148" rx="10" fill="url(#c4)"/><circle cx="871" cy="461" r="44" fill="#ffffff" opacity="0.14"/><circle cx="808" cy="530" r="30" fill="#000000" opacity="0.12"/><text x="764" y="590" font-family="'Segoe UI',Roboto,Helvetica,Arial,sans-serif" font-size="14" font-weight="600" fill="#f3f0f7" text-anchor="start">Feel Good</text><text x="764" y="610" font-family="'Segoe UI',Roboto,Helvetica,Arial,sans-serif" font-size="12.5" font-weight="400" fill="#a39db5" text-anchor="start">Playlist</text><rect x="928" y="420" width="148" height="148" rx="10" fill="url(#c5)"/><path d="M928 521 Q 1002 470 1076 527 L 1076 568 L 928 568 Z" fill="#000000" opacity="0.14"/><circle cx="1029" cy="470" r="19" fill="#ffffff" opacity="0.22"/><text x="928" y="590" font-family="'Segoe UI',Roboto,Helvetica,Arial,sans-serif" font-size="14" font-weight="600" fill="#f3f0f7" text-anchor="start">Throwback</text><text x="928" y="610" font-family="'Segoe UI',Roboto,Helvetica,Arial,sans-serif" font-size="12.5" font-weight="400" fill="#a39db5" text-anchor="start">Playlist</text><rect x="1092" y="420" width="148" height="148" rx="10" fill="url(#c6)"/><rect x="1119" y="456" width="13" height="77" rx="7" fill="#ffffff" opacity="0.10"/><rect x="1151" y="456" width="13" height="77" rx="7" fill="#ffffff" opacity="0.16"/><rect x="1184" y="456" width="13" height="77" rx="7" fill="#ffffff" opacity="0.22"/><text x="1092" y="590" font-family="'Segoe UI',Roboto,Helvetica,Arial,sans-serif" font-size="14" font-weight="600" fill="#f3f0f7" text-anchor="start">Indie</text><text x="1092" y="610" font-family="'Segoe UI',Roboto,Helvetica,Arial,sans-serif" font-size="12.5" font-weight="400" fill="#a39db5" text-anchor="start">Playlist</text><text x="272" y="650" font-family="'Segoe UI',Roboto,Helvetica,Arial,sans-serif" font-size="20" font-weight="700" fill="#f3f0f7" text-anchor="start">Albums pour vous</text><rect x="272" y="668" width="148" height="148" rx="10" fill="url(#c2)"/><rect x="299" y="704" width="13" height="77" rx="7" fill="#ffffff" opacity="0.10"/><rect x="331" y="704" width="13" height="77" rx="7" fill="#ffffff" opacity="0.16"/><rect x="364" y="704" width="13" height="77" rx="7" fill="#ffffff" opacity="0.22"/><rect x="436" y="668" width="148" height="148" rx="10" fill="url(#c3)"/><circle cx="510" cy="742" r="44" fill="none" stroke="#ffffff" stroke-width="4" opacity="0.20"/><circle cx="510" cy="742" r="13" fill="#ffffff" opacity="0.30"/><rect x="600" y="668" width="148" height="148" rx="10" fill="url(#c4)"/><circle cx="707" cy="709" r="44" fill="#ffffff" opacity="0.14"/><circle cx="644" cy="778" r="30" fill="#000000" opacity="0.12"/><rect x="764" y="668" width="148" height="148" rx="10" fill="url(#c5)"/><path d="M764 769 Q 838 718 912 775 L 912 816 L 764 816 Z" fill="#000000" opacity="0.14"/><circle cx="865" cy="718" r="19" fill="#ffffff" opacity="0.22"/><rect x="928" y="668" width="148" height="148" rx="10" fill="url(#c6)"/><rect x="955" y="704" width="13" height="77" rx="7" fill="#ffffff" opacity="0.10"/><rect x="987" y="704" width="13" height="77" rx="7" fill="#ffffff" opacity="0.16"/><rect x="1020" y="704" width="13" height="77" rx="7" fill="#ffffff" opacity="0.22"/><rect x="1092" y="668" width="148" height="148" rx="10" fill="url(#c7)"/><circle cx="1166" cy="742" r="44" fill="none" stroke="#ffffff" stroke-width="4" opacity="0.20"/><circle cx="1166" cy="742" r="13" fill="#ffffff" opacity="0.30"/><rect x="0" y="732" width="1280" height="88" fill="#1b1822"/><line x1="0" y1="732" x2="1280" y2="732" stroke="#2a2538" stroke-width="1"/><rect x="20" y="748" width="56" height="56" rx="8" fill="url(#c4)"/><circle cx="60" cy="764" r="17" fill="#ffffff" opacity="0.14"/><circle cx="37" cy="789" r="11" fill="#000000" opacity="0.12"/><text x="88" y="772.0" font-family="'Segoe UI',Roboto,Helvetica,Arial,sans-serif" font-size="14.5" font-weight="700" fill="#f3f0f7" text-anchor="start">Midnight City</text><text x="88" y="791.0" font-family="'Segoe UI',Roboto,Helvetica,Arial,sans-serif" font-size="12.5" font-weight="400" fill="#a39db5" text-anchor="start">M83</text><path d="M250 782.0 C241 774.0 244 768.0 250 773.0 C256 768.0 259 774.0 250 782.0 Z" fill="#ff0092"/><path d="M537.0 757.0 h4 l10 10 h3 M537.0 767.0 h4 l10 -10 h3" stroke="#a39db5" stroke-width="1.8" fill="none" stroke-linecap="round" stroke-linejoin="round"/><path d="M552.0 754.0 l3 3 l-3 3 M552.0 764.0 l3 3 l-3 3" stroke="#a39db5" stroke-width="1.8" fill="none" stroke-linecap="round" stroke-linejoin="round"/><path d="M593.0 756.0 L586.0 762.0 L593.0 768.0 Z" fill="#f3f0f7"/><rect x="582.0" y="756.0" width="2.4" height="12" rx="1" fill="#f3f0f7"/><circle cx="640.0" cy="762.0" r="20" fill="url(#acc)"/><path d="M636.0 756.0 L647.0 762.0 L636.0 768.0 Z" fill="#ffffff"/><path d="M687.0 756.0 L694.0 762.0 L687.0 768.0 Z" fill="#f3f0f7"/><rect x="696.0" y="756.0" width="2.4" height="12" rx="1" fill="#f3f0f7"/><path d="M730.0 764.0 v-2 a3 3 0 0 1 3 -3 h9 M742.0 760.0 v2 a3 3 0 0 1 -3 3 h-9" stroke="#a39db5" stroke-width="1.8" fill="none" stroke-linecap="round" stroke-linejoin="round"/><path d="M739.0 756.0 l3 3 l-3 3 M733.0 768.0 l-3 -3 l3 -3" stroke="#a39db5" stroke-width="1.8" fill="none" stroke-linecap="round" stroke-linejoin="round"/><text x="420.0" y="798.0" font-family="'Segoe UI',Roboto,Helvetica,Arial,sans-serif" font-size="11" font-weight="400" fill="#a39db5" text-anchor="end">1:32</text><rect x="450.0" y="792.0" width="380.0" height="4" rx="2" fill="#2a2538"/><rect x="450.0" y="792.0" width="144.4" height="4" rx="2" fill="url(#accH)"/><circle cx="594.4" cy="794.0" r="5" fill="#f3f0f7"/><text x="860.0" y="798.0" font-family="'Segoe UI',Roboto,Helvetica,Arial,sans-serif" font-size="11" font-weight="400" fill="#a39db5" text-anchor="start">4:03</text><rect x="1060" y="746.0" width="58" height="26" rx="13" fill="#2a2538"/><text x="1089" y="764.0" font-family="'Segoe UI',Roboto,Helvetica,Arial,sans-serif" font-size="12" font-weight="700" fill="#f3f0f7" text-anchor="middle">FLAC</text><path d="M1138 756.0 h3 l4 -4 v14 l-4 -4 h-3 Z" fill="#a39db5"/><path d="M1148 755.0 a5 5 0 0 1 0 8" stroke="#a39db5" stroke-width="1.8" fill="none" stroke-linecap="round" stroke-linejoin="round"/><rect x="1165" y="757.0" width="86" height="4" rx="2" fill="#2a2538"/><rect x="1165" y="757.0" width="56" height="4" rx="2" fill="#a39db5"/></g><rect x="0.5" y="0.5" width="1279" height="819" rx="16" fill="none" stroke="#2a2538" stroke-width="1"/></svg>