<svg xmlns="http://www.w3.org/2000/svg" width="1280" height="820" viewBox="0 0 1280 820" font-family="'Segoe UI',Roboto,Helvetica,Arial,sans-serif"><defs><linearGradient id="acc" x1="0" y1="0" x2="1" y2="1"><stop offset="0" stop-color="#a238ff"/><stop offset="1" stop-color="#ff0092"/></linearGradient><linearGradient id="accH" x1="0" y1="0" x2="1" y2="0"><stop offset="0" stop-color="#a238ff"/><stop offset="1" stop-color="#ff0092"/></linearGradient><linearGradient id="cov" x1="0" y1="0" x2="1" y2="1"><stop offset="0" stop-color="#ee0979"/><stop offset="1" stop-color="#ff6a00"/></linearGradient><filter id="blur" x="-40%" y="-40%" width="180%" height="180%"><feGaussianBlur stdDeviation="90"/></filter><linearGradient id="veil" x1="0" y1="0" x2="0" y2="1"><stop offset="0" stop-color="#0f0d13" stop-opacity="0.35"/><stop offset="1" stop-color="#0f0d13" stop-opacity="0.92"/></linearGradient></defs><clipPath id="round2"><rect width="1280" height="820" rx="16"/></clipPath><g clip-path="url(#round2)"><rect width="1280" height="820" fill="#0f0d13"/><g filter="url(#blur)" opacity="0.9"><circle cx="360" cy="300" r="320" fill="#ee0979"/><circle cx="820" cy="180" r="300" fill="#ff6a00"/><circle cx="1050" cy="640" r="320" fill="#a238ff"/><circle cx="180" cy="720" r="260" fill="#b91d73"/></g><rect width="1280" height="820" fill="url(#veil)"/><path d="M38 39 L44 45 L50 39" stroke="#f3f0f7" stroke-width="1.8" fill="none" stroke-linecap="round" stroke-linejoin="round"/><text x="640.0" y="46" font-family="'Segoe UI',Roboto,Helvetica,Arial,sans-serif" font-size="13" font-weight="700" fill="#a39db5" text-anchor="middle" letter-spacing="1.5">EN LECTURE</text><rect x="136" y="134" width="344" height="344" rx="18" fill="#000" opacity="0.35" filter="url(#blur)"/><rect x="120" y="104" width="344" height="344" rx="18" fill="url(#cov)"/><circle cx="354" cy="207" r="89" fill="#fff" opacity="0.13"/><circle cx="237" cy="352" r="58" fill="#000" opacity="0.12"/><circle cx="292" cy="276" r="103" fill="none" stroke="#fff" stroke-width="10" opacity="0.15"/><text x="120" y="498" font-family="'Segoe UI',Roboto,Helvetica,Arial,sans-serif" font-size="32" font-weight="800" fill="#f3f0f7" text-anchor="start">Midnight City</text><text x="120" y="528" font-family="'Segoe UI',Roboto,Helvetica,Arial,sans-serif" font-size="17" font-weight="400" fill="#a39db5" text-anchor="start">M83 · Hurry Up, We&#x27;re Dreaming</text><rect x="120" y="558" width="344" height="5" rx="2.5" fill="#ffffff" opacity="0.18"/><rect x="120" y="558" width="144.48" height="5" rx="2.5" fill="url(#accH)"/><circle cx="264.48" cy="560.5" r="7" fill="#f3f0f7"/><text x="120" y="584" font-family="'Segoe UI',Roboto,Helvetica,Arial,sans-serif" font-size="12" font-weight="400" fill="#a39db5" text-anchor="start">1:42</text><text x="464" y="584" font-family="'Segoe UI',Roboto,Helvetica,Arial,sans-serif" font-size="12" font-weight="400" fill="#a39db5" text-anchor="end">4:03</text><path d="M134 626 C125 618 128 612 134 617 C140 612 143 618 134 626 Z" fill="#ff0092"/><path d="M135.0 615 h4 l10 10 h3 M135.0 625 h4 l10 -10 h3" stroke="#a39db5" stroke-width="1.8" fill="none" stroke-linecap="round" stroke-linejoin="round"/><path d="M150.0 612 l3 3 l-3 3 M150.0 622 l3 3 l-3 3" stroke="#a39db5" stroke-width="1.8" fill="none" stroke-linecap="round" stroke-linejoin="round"/><path d="M217.0 614 L210.0 620 L217.0 626 Z" fill="#f3f0f7"/><rect x="206.0" y="614" width="2.4" height="12" rx="1" fill="#f3f0f7"/><circle cx="292.0" cy="620" r="30" fill="url(#acc)"/><path d="M288.0 614 L299.0 620 L288.0 626 Z" fill="#fff"/><path d="M367.0 614 L374.0 620 L367.0 626 Z" fill="#f3f0f7"/><rect x="376.0" y="614" width="2.4" height="12" rx="1" fill="#f3f0f7"/><path d="M436.0 622 v-2 a3 3 0 0 1 3 -3 h9 M448.0 618 v2 a3 3 0 0 1 -3 3 h-9" stroke="#a39db5" stroke-width="1.8" fill="none" stroke-linecap="round" stroke-linejoin="round"/><path d="M445.0 614 l3 3 l-3 3 M439.0 626 l-3 -3 l3 -3" stroke="#a39db5" stroke-width="1.8" fill="none" stroke-linecap="round" stroke-linejoin="round"/><rect x="120" y="694" width="9" height="14" rx="3.5" fill="url(#accH)" opacity="0.35"/><rect x="137" y="682" width="9" height="26" rx="3.5" fill="url(#accH)" opacity="0.37"/><rect x="154" y="668" width="9" height="40" rx="3.5" fill="url(#accH)" opacity="0.39"/><rect x="171" y="688" width="9" height="20" rx="3.5" fill="url(#accH)" opacity="0.41"/><rect x="188" y="674" width="9" height="34" rx="3.5" fill="url(#accH)" opacity="0.43"/><rect x="205" y="660" width="9" height="48" rx="3.5" fill="url(#accH)" opacity="0.45"/><rect x="222" y="680" width="9" height="28" rx="3.5" fill="url(#accH)" opacity="0.47"/><rect x="239" y="692" width="9" height="16" rx="3.5" fill="url(#accH)" opacity="0.49"/><rect x="256" y="676" width="9" height="32" rx="3.5" fill="url(#accH)" opacity="0.51"/><rect x="273" y="664" width="9" height="44" rx="3.5" fill="url(#accH)" opacity="0.53"/><rect x="290" y="684" width="9" height="24" rx="3.5" fill="url(#accH)" opacity="0.55"/><rect x="307" y="670" width="9" height="38" rx="3.5" fill="url(#accH)" opacity="0.57"/><rect x="324" y="690" width="9" height="18" rx="3.5" fill="url(#accH)" opacity="0.59"/><rect x="341" y="678" width="9" height="30" rx="3.5" fill="url(#accH)" opacity="0.61"/><rect x="358" y="662" width="9" height="46" rx="3.5" fill="url(#accH)" opacity="0.63"/><rect x="375" y="686" width="9" height="22" rx="3.5" fill="url(#accH)" opacity="0.65"/><rect x="392" y="674" width="9" height="34" rx="3.5" fill="url(#accH)" opacity="0.67"/><rect x="409" y="692" width="9" height="16" rx="3.5" fill="url(#accH)" opacity="0.69"/><rect x="426" y="680" width="9" height="28" rx="3.5" fill="url(#accH)" opacity="0.71"/><rect x="443" y="668" width="9" height="40" rx="3.5" fill="url(#accH)" opacity="0.73"/><rect x="460" y="688" width="9" height="20" rx="3.5" fill="url(#accH)" opacity="0.75"/><rect x="477" y="676" width="9" height="32" rx="3.5" fill="url(#accH)" opacity="0.77"/><rect x="696" y="96" width="488" height="630" rx="18" fill="#ffffff" fill-opacity="0.05"/><text x="720" y="150" font-family="'Segoe UI',Roboto,Helvetica,Arial,sans-serif" font-size="16" font-weight="700" fill="#f3f0f7" text-anchor="start">Paroles</text><text x="816" y="150" font-family="'Segoe UI',Roboto,Helvetica,Arial,sans-serif" font-size="16" font-weight="600" fill="#a39db5" text-anchor="start">File d&#x27;attente</text><rect x="720" y="160" width="66" height="3" rx="1.5" fill="url(#accH)"/><text x="720" y="210" font-family="'Segoe UI',Roboto,Helvetica,Arial,sans-serif" font-size="18" font-weight="500" fill="#a39db5" text-anchor="start">Neon hums along the empty street</text><text x="720" y="256" font-family="'Segoe UI',Roboto,Helvetica,Arial,sans-serif" font-size="18" font-weight="500" fill="#a39db5" text-anchor="start">Headlights paint the midnight blue</text><text x="720" y="302" font-family="'Segoe UI',Roboto,Helvetica,Arial,sans-serif" font-size="18" font-weight="500" fill="#a39db5" text-anchor="start">We were only chasing sound</text><text x="720" y="356" font-family="'Segoe UI',Roboto,Helvetica,Arial,sans-serif" font-size="23" font-weight="800" fill="#f3f0f7" text-anchor="start">Holding on to what we found</text><text x="720" y="406" font-family="'Segoe UI',Roboto,Helvetica,Arial,sans-serif" font-size="18" font-weight="500" fill="#a39db5" text-anchor="start">City lights dissolve to gold</text><text x="720" y="452" font-family="'Segoe UI',Roboto,Helvetica,Arial,sans-serif" font-size="18" font-weight="500" fill="#a39db5" text-anchor="start">Every echo turning bold</text><text x="720" y="498" font-family="'Segoe UI',Roboto,Helvetica,Arial,sans-serif" font-size="18" font-weight="500" fill="#a39db5" text-anchor="start">Keep the night a little longer</text><text x="720" y="544" font-family="'Segoe UI',Roboto,Helvetica,Arial,sans-serif" font-size="18" font-weight="500" fill="#a39db5" text-anchor="start">Feel the pulse grow ever stronger</text><text x="720" y="590" font-family="'Segoe UI',Roboto,Helvetica,Arial,sans-serif" font-size="18" font-weight="500" fill="#a39db5" text-anchor="start">Dreaming loud until the dawn</text></g><rect x="0.5" y="0.5" width="1279" height="819" rx="16" fill="none" stroke="#2a2538" stroke-width="1"/></svg>